<?xml version="1.0" encoding="UTF-8"?>
<!DOCTYPE svg PUBLIC "-//W3C//DTD SVG 1.1//EN"
    "http://www.w3.org/Graphics/SVG/1.1/DTD/svg11.dtd"><svg xmlns="http://www.w3.org/2000/svg" height="392.9883" stroke-opacity="1" viewBox="0 0 400 393" font-size="1" width="400.0000" xmlns:xlink="http://www.w3.org/1999/xlink" stroke="rgb(0,0,0)" version="1.1"><defs></defs><g stroke-linejoin="miter" stroke-opacity="1.0" fill-opacity="0.0" stroke="rgb(0,0,0)" stroke-width="1.5859145902297376" fill="rgb(0,0,0)" stroke-linecap="butt" stroke-miterlimit="10.0"><path d="M 286.0618,317.2555 c 0.0000,-8.3706 -6.7857,-15.1562 -15.1562 -15.1562c -8.3706,-0.0000 -15.1562,6.7857 -15.1562 15.1562c -0.0000,8.3706 6.7857,15.1562 15.1562 15.1562c 8.3706,0.0000 15.1562,-6.7857 15.1562 -15.1562Z"/></g><g stroke-linejoin="miter" stroke-opacity="1.0" fill-opacity="0.0" stroke="rgb(0,0,0)" stroke-width="1.5859145902297376" fill="rgb(0,0,0)" stroke-linecap="butt" stroke-miterlimit="10.0"><path d="M 209.0101,317.2555 c 0.0000,-8.3706 -6.7857,-15.1562 -15.1562 -15.1562c -8.3706,-0.0000 -15.1562,6.7857 -15.1562 15.1562c -0.0000,8.3706 6.7857,15.1562 15.1562 15.1562c 8.3706,0.0000 15.1562,-6.7857 15.1562 -15.1562Z"/></g><g stroke-linejoin="miter" stroke-opacity="1.0" fill-opacity="0.0" stroke="rgb(0,0,0)" stroke-width="1.5859145902297376" fill="rgb(0,0,0)" stroke-linecap="butt" stroke-miterlimit="10.0"><path d="M 76.2156,377.8321 c 0.0000,-8.3706 -6.7857,-15.1562 -15.1562 -15.1562c -8.3706,-0.0000 -15.1562,6.7857 -15.1562 15.1562c -0.0000,8.3706 6.7857,15.1562 15.1562 15.1562c 8.3706,0.0000 15.1562,-6.7857 15.1562 -15.1562Z"/></g><g stroke-linejoin="miter" stroke-opacity="1.0" fill-opacity="0.0" stroke="rgb(0,0,0)" stroke-width="1.5859145902297376" fill="rgb(0,0,0)" stroke-linecap="butt" stroke-miterlimit="10.0"><path d="M 144.2539,317.2555 c 0.0000,-8.3706 -6.7857,-15.1562 -15.1562 -15.1562c -8.3706,-0.0000 -15.1562,6.7857 -15.1562 15.1562c -0.0000,8.3706 6.7857,15.1562 15.1562 15.1562c 8.3706,0.0000 15.1562,-6.7857 15.1562 -15.1562Z"/></g><g stroke-linejoin="miter" stroke-opacity="1.0" fill-opacity="0.0" stroke="rgb(0,0,0)" stroke-width="1.5859145902297376" fill="rgb(0,0,0)" stroke-linecap="butt" stroke-miterlimit="10.0"><path d="M 247.5360,256.6805 c 0.0000,-8.3706 -6.7857,-15.1562 -15.1562 -15.1562c -8.3706,-0.0000 -15.1562,6.7857 -15.1562 15.1562c -0.0000,8.3706 6.7857,15.1562 15.1562 15.1562c 8.3706,0.0000 15.1562,-6.7857 15.1562 -15.1562Z"/></g><g stroke-linejoin="miter" stroke-opacity="1.0" fill-opacity="0.0" stroke="rgb(0,0,0)" stroke-width="1.5859145902297376" fill="rgb(0,0,0)" stroke-linecap="butt" stroke-miterlimit="10.0"><path d="M 400.0000,196.1048 c 0.0000,-8.3706 -6.7857,-15.1562 -15.1562 -15.1562c -8.3706,-0.0000 -15.1562,6.7857 -15.1562 15.1562c -0.0000,8.3706 6.7857,15.1562 15.1562 15.1562c 8.3706,0.0000 15.1562,-6.7857 15.1562 -15.1562Z"/></g><g stroke-linejoin="miter" stroke-opacity="1.0" fill-opacity="0.0" stroke="rgb(0,0,0)" stroke-width="1.5859145902297376" fill="rgb(0,0,0)" stroke-linecap="butt" stroke-miterlimit="10.0"><path d="M 371.3105,135.5290 c 0.0000,-8.3706 -6.7857,-15.1562 -15.1562 -15.1562c -8.3706,-0.0000 -15.1562,6.7857 -15.1562 15.1562c -0.0000,8.3706 6.7857,15.1562 15.1562 15.1562c 8.3706,0.0000 15.1562,-6.7857 15.1562 -15.1562Z"/></g><g stroke-linejoin="miter" stroke-opacity="1.0" fill-opacity="0.0" stroke="rgb(0,0,0)" stroke-width="1.5859145902297376" fill="rgb(0,0,0)" stroke-linecap="butt" stroke-miterlimit="10.0"><path d="M 393.4424,74.9533 c 0.0000,-8.3706 -6.7857,-15.1562 -15.1562 -15.1562c -8.3706,-0.0000 -15.1562,6.7857 -15.1562 15.1562c -0.0000,8.3706 6.7857,15.1562 15.1562 15.1562c 8.3706,0.0000 15.1562,-6.7857 15.1562 -15.1562Z"/></g><g stroke-linejoin="miter" stroke-opacity="1.0" fill-opacity="0.0" stroke="rgb(0,0,0)" stroke-width="1.5859145902297376" fill="rgb(0,0,0)" stroke-linecap="butt" stroke-miterlimit="10.0"><path d="M 30.3125,377.8321 c 0.0000,-8.3706 -6.7857,-15.1562 -15.1562 -15.1562c -8.3706,-0.0000 -15.1562,6.7857 -15.1562 15.1562c -0.0000,8.3706 6.7857,15.1562 15.1562 15.1562c 8.3706,0.0000 15.1562,-6.7857 15.1562 -15.1562Z"/></g><g stroke-linejoin="miter" stroke-opacity="1.0" fill-opacity="0.0" stroke="rgb(0,0,0)" stroke-width="1.5859145902297376" fill="rgb(0,0,0)" stroke-linecap="butt" stroke-miterlimit="10.0"><path d="M 98.3508,317.2555 c 0.0000,-8.3706 -6.7857,-15.1562 -15.1562 -15.1562c -8.3706,-0.0000 -15.1562,6.7857 -15.1562 15.1562c -0.0000,8.3706 6.7857,15.1562 15.1562 15.1562c 8.3706,0.0000 15.1562,-6.7857 15.1562 -15.1562Z"/></g><g stroke-linejoin="miter" stroke-opacity="1.0" fill-opacity="0.0" stroke="rgb(0,0,0)" stroke-width="1.5859145902297376" fill="rgb(0,0,0)" stroke-linecap="butt" stroke-miterlimit="10.0"><path d="M 171.3040,256.6805 c 0.0000,-8.3706 -6.7857,-15.1562 -15.1562 -15.1562c -8.3706,-0.0000 -15.1562,6.7857 -15.1562 15.1562c -0.0000,8.3706 6.7857,15.1562 15.1562 15.1562c 8.3706,0.0000 15.1562,-6.7857 15.1562 -15.1562Z"/></g><g stroke-linejoin="miter" stroke-opacity="1.0" fill-opacity="0.0" stroke="rgb(0,0,0)" stroke-width="1.5859145902297376" fill="rgb(0,0,0)" stroke-linecap="butt" stroke-miterlimit="10.0"><path d="M 354.9166,196.1048 c 0.0000,-8.3706 -6.7857,-15.1562 -15.1562 -15.1562c -8.3706,-0.0000 -15.1562,6.7857 -15.1562 15.1562c -0.0000,8.3706 6.7857,15.1562 15.1562 15.1562c 8.3706,0.0000 15.1562,-6.7857 15.1562 -15.1562Z"/></g><g stroke-linejoin="miter" stroke-opacity="1.0" fill-opacity="0.0" stroke="rgb(0,0,0)" stroke-width="1.5859145902297376" fill="rgb(0,0,0)" stroke-linecap="butt" stroke-miterlimit="10.0"><path d="M 326.2271,135.5290 c 0.0000,-8.3706 -6.7857,-15.1562 -15.1562 -15.1562c -8.3706,-0.0000 -15.1562,6.7857 -15.1562 15.1562c -0.0000,8.3706 6.7857,15.1562 15.1562 15.1562c 8.3706,0.0000 15.1562,-6.7857 15.1562 -15.1562Z"/></g><g stroke-linejoin="miter" stroke-opacity="1.0" fill-opacity="0.0" stroke="rgb(0,0,0)" stroke-width="1.5859145902297376" fill="rgb(0,0,0)" stroke-linecap="butt" stroke-miterlimit="10.0"><path d="M 348.3590,74.9533 c 0.0000,-8.3706 -6.7857,-15.1562 -15.1562 -15.1562c -8.3706,-0.0000 -15.1562,6.7857 -15.1562 15.1562c -0.0000,8.3706 6.7857,15.1562 15.1562 15.1562c 8.3706,0.0000 15.1562,-6.7857 15.1562 -15.1562Z"/></g><g stroke-linejoin="miter" stroke-opacity="1.0" fill-opacity="0.0" stroke="rgb(0,0,0)" stroke-width="1.5859145902297376" fill="rgb(0,0,0)" stroke-linecap="butt" stroke-miterlimit="10.0"><path d="M 53.2641,317.2555 c 0.0000,-8.3706 -6.7857,-15.1562 -15.1562 -15.1562c -8.3706,-0.0000 -15.1562,6.7857 -15.1562 15.1562c -0.0000,8.3706 6.7857,15.1562 15.1562 15.1562c 8.3706,0.0000 15.1562,-6.7857 15.1562 -15.1562Z"/></g><g stroke-linejoin="miter" stroke-opacity="1.0" fill-opacity="0.0" stroke="rgb(0,0,0)" stroke-width="1.5859145902297376" fill="rgb(0,0,0)" stroke-linecap="butt" stroke-miterlimit="10.0"><path d="M 95.8884,256.6805 c 0.0000,-8.3706 -6.7857,-15.1562 -15.1562 -15.1562c -8.3706,-0.0000 -15.1562,6.7857 -15.1562 15.1562c -0.0000,8.3706 6.7857,15.1562 15.1562 15.1562c 8.3706,0.0000 15.1562,-6.7857 15.1562 -15.1562Z"/></g><g stroke-linejoin="miter" stroke-opacity="1.0" fill-opacity="0.0" stroke="rgb(0,0,0)" stroke-width="1.5859145902297376" fill="rgb(0,0,0)" stroke-linecap="butt" stroke-miterlimit="10.0"><path d="M 227.8632,196.1048 c 0.0000,-8.3706 -6.7857,-15.1562 -15.1562 -15.1562c -8.3706,-0.0000 -15.1562,6.7857 -15.1562 15.1562c -0.0000,8.3706 6.7857,15.1562 15.1562 15.1562c 8.3706,0.0000 15.1562,-6.7857 15.1562 -15.1562Z"/></g><g stroke-linejoin="miter" stroke-opacity="1.0" fill-opacity="0.0" stroke="rgb(0,0,0)" stroke-width="1.5859145902297376" fill="rgb(0,0,0)" stroke-linecap="butt" stroke-miterlimit="10.0"><path d="M 281.9633,135.5290 c 0.0000,-8.3706 -6.7857,-15.1562 -15.1562 -15.1562c -8.3706,-0.0000 -15.1562,6.7857 -15.1562 15.1562c -0.0000,8.3706 6.7857,15.1562 15.1562 15.1562c 8.3706,0.0000 15.1562,-6.7857 15.1562 -15.1562Z"/></g><g stroke-linejoin="miter" stroke-opacity="1.0" fill-opacity="0.0" stroke="rgb(0,0,0)" stroke-width="1.5859145902297376" fill="rgb(0,0,0)" stroke-linecap="butt" stroke-miterlimit="10.0"><path d="M 304.0952,74.9533 c 0.0000,-8.3706 -6.7857,-15.1562 -15.1562 -15.1562c -8.3706,-0.0000 -15.1562,6.7857 -15.1562 15.1562c -0.0000,8.3706 6.7857,15.1562 15.1562 15.1562c 8.3706,0.0000 15.1562,-6.7857 15.1562 -15.1562Z"/></g><g stroke-linejoin="miter" stroke-opacity="1.0" fill-opacity="0.0" stroke="rgb(0,0,0)" stroke-width="1.5859145902297376" fill="rgb(0,0,0)" stroke-linecap="butt" stroke-miterlimit="10.0"><path d="M 326.2271,15.1562 c 0.0000,-8.3706 -6.7857,-15.1562 -15.1562 -15.1562c -8.3706,-0.0000 -15.1562,6.7857 -15.1562 15.1562c -0.0000,8.3706 6.7857,15.1562 15.1562 15.1562c 8.3706,0.0000 15.1562,-6.7857 15.1562 -15.1562Z"/></g><g stroke-linejoin="miter" stroke-opacity="1.0" fill-opacity="0.0" stroke="rgb(0,0,0)" stroke-width="1.5859145902297376" fill="rgb(0,0,0)" stroke-linecap="butt" stroke-miterlimit="10.0"><path d="M 270.0400,302.1240 c -0.8489,-14.8397 -3.6820,-38.5673 -12.8178 -56.7788c -5.4315,-10.8168 -14.4657,-20.8471 -22.4825 -28.4220"/></g><g stroke-linejoin="miter" stroke-opacity="1.0" fill-opacity="1.0" stroke="rgb(0,0,0)" stroke-width="0.0" fill="rgb(0,0,0)" stroke-linecap="butt" stroke-miterlimit="10.0"></g><g stroke-linejoin="miter" stroke-opacity="1.0" fill-opacity="1.0" stroke="rgb(0,0,0)" stroke-width="0.0" fill="rgb(0,0,0)" stroke-linecap="butt" stroke-miterlimit="10.0"></g><g stroke-linejoin="miter" stroke-opacity="1.0" fill-opacity="1.0" stroke="rgb(0,0,0)" stroke-width="0.0" fill="rgb(0,0,0)" stroke-linecap="butt" stroke-miterlimit="10.0"><path d="M 223.7233,206.5140 l 8.9537,16.4064 l 1.7596,-6.2835 l 6.1738,-2.1127 Z"/></g><g stroke-linejoin="miter" stroke-opacity="1.0" fill-opacity="1.0" stroke="rgb(0,0,0)" stroke-width="0.0" fill="rgb(0,0,0)" stroke-linecap="butt" stroke-miterlimit="10.0"><path d="M 234.4367,216.6369 l 0.3030,0.2863 l -0.5446,0.5764 l 0.2416,-0.8627 l 0.3030,0.2863 l 0.5446,-0.5764 Z"/></g><g stroke-linejoin="miter" stroke-opacity="1.0" fill-opacity="0.0" stroke="rgb(0,0,0)" stroke-width="1.5859145902297376" fill="rgb(0,0,0)" stroke-linecap="butt" stroke-miterlimit="10.0"><path d="M 196.1812,302.2790 c 2.9576,-19.0331 8.3963,-53.9811 11.8606 -76.2229"/></g><g stroke-linejoin="miter" stroke-opacity="1.0" fill-opacity="1.0" stroke="rgb(0,0,0)" stroke-width="0.0" fill="rgb(0,0,0)" stroke-linecap="butt" stroke-miterlimit="10.0"></g><g stroke-linejoin="miter" stroke-opacity="1.0" fill-opacity="1.0" stroke="rgb(0,0,0)" stroke-width="0.0" fill="rgb(0,0,0)" stroke-linecap="butt" stroke-miterlimit="10.0"></g><g stroke-linejoin="miter" stroke-opacity="1.0" fill-opacity="1.0" stroke="rgb(0,0,0)" stroke-width="0.0" fill="rgb(0,0,0)" stroke-linecap="butt" stroke-miterlimit="10.0"><path d="M 210.3744,211.0805 l -8.4427,16.6751 l 6.1742,-2.1114 l 5.2396,3.8892 Z"/></g><g stroke-linejoin="miter" stroke-opacity="1.0" fill-opacity="1.0" stroke="rgb(0,0,0)" stroke-width="0.0" fill="rgb(0,0,0)" stroke-linecap="butt" stroke-miterlimit="10.0"><path d="M 208.1059,225.6442 l -0.0642,0.4119 l -0.7835,-0.1220 l 0.8477,-0.2899 l -0.0642,0.4119 l 0.7835,0.1220 Z"/></g><g stroke-linejoin="miter" stroke-opacity="1.0" fill-opacity="0.0" stroke="rgb(0,0,0)" stroke-width="1.5859145902297376" fill="rgb(0,0,0)" stroke-linecap="butt" stroke-miterlimit="10.0"><path d="M 240.5222,269.4638 c 4.1066,6.4472 9.4700,14.8899 14.1227 22.2097"/></g><g stroke-linejoin="miter" stroke-opacity="1.0" fill-opacity="1.0" stroke="rgb(0,0,0)" stroke-width="0.0" fill="rgb(0,0,0)" stroke-linecap="butt" stroke-miterlimit="10.0"></g><g stroke-linejoin="miter" stroke-opacity="1.0" fill-opacity="1.0" stroke="rgb(0,0,0)" stroke-width="0.0" fill="rgb(0,0,0)" stroke-linecap="butt" stroke-miterlimit="10.0"></g><g stroke-linejoin="miter" stroke-opacity="1.0" fill-opacity="1.0" stroke="rgb(0,0,0)" stroke-width="0.0" fill="rgb(0,0,0)" stroke-linecap="butt" stroke-miterlimit="10.0"><path d="M 262.7753,304.4645 l -4.6612,-18.1001 l -3.2455,5.6609 l -6.5032,0.5357 Z"/></g><g stroke-linejoin="miter" stroke-opacity="1.0" fill-opacity="1.0" stroke="rgb(0,0,0)" stroke-width="0.0" fill="rgb(0,0,0)" stroke-linecap="butt" stroke-miterlimit="10.0"><path d="M 254.8685,292.0254 l -0.2236,-0.3518 l 0.6692,-0.4254 l -0.4456,0.7772 l -0.2236,-0.3518 l -0.6692,0.4254 Z"/></g><g stroke-linejoin="miter" stroke-opacity="1.0" fill-opacity="0.0" stroke="rgb(0,0,0)" stroke-width="1.5859145902297376" fill="rgb(0,0,0)" stroke-linecap="butt" stroke-miterlimit="10.0"><path d="M 224.2447,269.4685 c -4.1009,6.4465 -9.4723,14.8885 -14.1261 22.2075"/></g><g stroke-linejoin="miter" stroke-opacity="1.0" fill-opacity="1.0" stroke="rgb(0,0,0)" stroke-width="0.0" fill="rgb(0,0,0)" stroke-linecap="butt" stroke-miterlimit="10.0"></g><g stroke-linejoin="miter" stroke-opacity="1.0" fill-opacity="1.0" stroke="rgb(0,0,0)" stroke-width="0.0" fill="rgb(0,0,0)" stroke-linecap="butt" stroke-miterlimit="10.0"></g><g stroke-linejoin="miter" stroke-opacity="1.0" fill-opacity="1.0" stroke="rgb(0,0,0)" stroke-width="0.0" fill="rgb(0,0,0)" stroke-linecap="butt" stroke-miterlimit="10.0"><path d="M 201.9862,304.4658 l 14.4118,-11.9012 l -6.5032,-0.5367 l -3.2446,-5.6614 Z"/></g><g stroke-linejoin="miter" stroke-opacity="1.0" fill-opacity="1.0" stroke="rgb(0,0,0)" stroke-width="0.0" fill="rgb(0,0,0)" stroke-linecap="butt" stroke-miterlimit="10.0"><path d="M 209.8949,292.0278 l 0.2237,-0.3518 l 0.6691,0.4255 l -0.8928,-0.0737 l 0.2237,-0.3518 l -0.6691,-0.4255 Z"/></g><g stroke-linejoin="miter" stroke-opacity="1.0" fill-opacity="0.0" stroke="rgb(0,0,0)" stroke-width="1.5859145902297376" fill="rgb(0,0,0)" stroke-linecap="butt" stroke-miterlimit="10.0"><path d="M 43.4778,331.4285 c 2.0094,5.3033 4.5474,12.0014 6.8418 18.0574"/></g><g stroke-linejoin="miter" stroke-opacity="1.0" fill-opacity="1.0" stroke="rgb(0,0,0)" stroke-width="0.0" fill="rgb(0,0,0)" stroke-linecap="butt" stroke-miterlimit="10.0"></g><g stroke-linejoin="miter" stroke-opacity="1.0" fill-opacity="1.0" stroke="rgb(0,0,0)" stroke-width="0.0" fill="rgb(0,0,0)" stroke-linecap="butt" stroke-miterlimit="10.0"></g><g stroke-linejoin="miter" stroke-opacity="1.0" fill-opacity="1.0" stroke="rgb(0,0,0)" stroke-width="0.0" fill="rgb(0,0,0)" stroke-linecap="butt" stroke-miterlimit="10.0"><path d="M 55.6895,363.6590 l -0.8969,-18.6691 l -4.3252,4.8858 l -6.4769,-0.7932 Z"/></g><g stroke-linejoin="miter" stroke-opacity="1.0" fill-opacity="1.0" stroke="rgb(0,0,0)" stroke-width="0.0" fill="rgb(0,0,0)" stroke-linecap="butt" stroke-miterlimit="10.0"><path d="M 50.4674,349.8757 l -0.1477,-0.3898 l 0.7415,-0.2809 l -0.5938,0.6708 l -0.1477,-0.3898 l -0.7415,0.2809 Z"/></g><g stroke-linejoin="miter" stroke-opacity="1.0" fill-opacity="0.0" stroke="rgb(0,0,0)" stroke-width="1.5859145902297376" fill="rgb(0,0,0)" stroke-linecap="butt" stroke-miterlimit="10.0"><path d="M 32.7383,331.4287 c -2.0091,5.3032 -4.5507,12.0112 -6.8416 18.0575"/></g><g stroke-linejoin="miter" stroke-opacity="1.0" fill-opacity="1.0" stroke="rgb(0,0,0)" stroke-width="0.0" fill="rgb(0,0,0)" stroke-linecap="butt" stroke-miterlimit="10.0"></g><g stroke-linejoin="miter" stroke-opacity="1.0" fill-opacity="1.0" stroke="rgb(0,0,0)" stroke-width="0.0" fill="rgb(0,0,0)" stroke-linecap="butt" stroke-miterlimit="10.0"></g><g stroke-linejoin="miter" stroke-opacity="1.0" fill-opacity="1.0" stroke="rgb(0,0,0)" stroke-width="0.0" fill="rgb(0,0,0)" stroke-linecap="butt" stroke-miterlimit="10.0"><path d="M 20.5265,363.6591 l 11.6994,-14.5761 l -6.4769,0.7930 l -4.3251,-4.8860 Z"/></g><g stroke-linejoin="miter" stroke-opacity="1.0" fill-opacity="1.0" stroke="rgb(0,0,0)" stroke-width="0.0" fill="rgb(0,0,0)" stroke-linecap="butt" stroke-miterlimit="10.0"><path d="M 25.7490,349.8760 l 0.1477,-0.3898 l 0.7415,0.2810 l -0.8892,0.1089 l 0.1477,-0.3898 l -0.7415,-0.2810 Z"/></g><g stroke-linejoin="miter" stroke-opacity="1.0" fill-opacity="0.0" stroke="rgb(0,0,0)" stroke-width="1.5859145902297376" fill="rgb(0,0,0)" stroke-linecap="butt" stroke-miterlimit="10.0"><path d="M 38.5591,302.1060 c 0.6563,-22.0347 1.7548,-66.5221 1.2683 -104.2299c -0.7926,-61.4300 -0.7926,-61.4300 -0.7926 -61.4300c -1.3663,-105.8959 177.0618,-119.2798 241.7304 -120.6484"/></g><g stroke-linejoin="miter" stroke-opacity="1.0" fill-opacity="1.0" stroke="rgb(0,0,0)" stroke-width="0.0" fill="rgb(0,0,0)" stroke-linecap="butt" stroke-miterlimit="10.0"></g><g stroke-linejoin="miter" stroke-opacity="1.0" fill-opacity="1.0" stroke="rgb(0,0,0)" stroke-width="0.0" fill="rgb(0,0,0)" stroke-linecap="butt" stroke-miterlimit="10.0"></g><g stroke-linejoin="miter" stroke-opacity="1.0" fill-opacity="1.0" stroke="rgb(0,0,0)" stroke-width="0.0" fill="rgb(0,0,0)" stroke-linecap="butt" stroke-miterlimit="10.0"><path d="M 295.9180,15.4769 l -17.8941,-5.3983 l 3.1580,5.7102 l -2.9136,5.8387 Z"/></g><g stroke-linejoin="miter" stroke-opacity="1.0" fill-opacity="1.0" stroke="rgb(0,0,0)" stroke-width="0.0" fill="rgb(0,0,0)" stroke-linecap="butt" stroke-miterlimit="10.0"><path d="M 281.1819,15.7888 l -0.4168,0.0088 l -0.0168,-0.7928 l 0.4336,0.7840 l -0.4168,0.0088 l 0.0168,0.7928 Z"/></g><g stroke-linejoin="miter" stroke-opacity="1.0" fill-opacity="0.0" stroke="rgb(0,0,0)" stroke-width="1.5859145902297376" fill="rgb(0,0,0)" stroke-linecap="butt" stroke-miterlimit="10.0"><path d="M 90.1917,268.5224 c 5.6277,7.0450 13.4565,16.8579 19.9929 25.0447"/></g><g stroke-linejoin="miter" stroke-opacity="1.0" fill-opacity="1.0" stroke="rgb(0,0,0)" stroke-width="0.0" fill="rgb(0,0,0)" stroke-linecap="butt" stroke-miterlimit="10.0"></g><g stroke-linejoin="miter" stroke-opacity="1.0" fill-opacity="1.0" stroke="rgb(0,0,0)" stroke-width="0.0" fill="rgb(0,0,0)" stroke-linecap="butt" stroke-miterlimit="10.0"></g><g stroke-linejoin="miter" stroke-opacity="1.0" fill-opacity="1.0" stroke="rgb(0,0,0)" stroke-width="0.0" fill="rgb(0,0,0)" stroke-linecap="butt" stroke-miterlimit="10.0"><path d="M 119.6411,305.4113 l -6.5774,-17.4950 l -2.6190,5.9766 l -6.4081,1.2308 Z"/></g><g stroke-linejoin="miter" stroke-opacity="1.0" fill-opacity="1.0" stroke="rgb(0,0,0)" stroke-width="0.0" fill="rgb(0,0,0)" stroke-linecap="butt" stroke-miterlimit="10.0"><path d="M 110.4447,293.8928 l -0.2601,-0.3258 l 0.6197,-0.4948 l -0.3596,0.8205 l -0.2601,-0.3258 l -0.6197,0.4948 Z"/></g><g stroke-linejoin="miter" stroke-opacity="1.0" fill-opacity="0.0" stroke="rgb(0,0,0)" stroke-width="1.5859145902297376" fill="rgb(0,0,0)" stroke-linecap="butt" stroke-miterlimit="10.0"><path d="M 81.3441,271.8244 c 0.1827,4.5221 0.4034,10.0238 0.6127 15.1439"/></g><g stroke-linejoin="miter" stroke-opacity="1.0" fill-opacity="1.0" stroke="rgb(0,0,0)" stroke-width="0.0" fill="rgb(0,0,0)" stroke-linecap="butt" stroke-miterlimit="10.0"></g><g stroke-linejoin="miter" stroke-opacity="1.0" fill-opacity="1.0" stroke="rgb(0,0,0)" stroke-width="0.0" fill="rgb(0,0,0)" stroke-linecap="butt" stroke-miterlimit="10.0"></g><g stroke-linejoin="miter" stroke-opacity="1.0" fill-opacity="1.0" stroke="rgb(0,0,0)" stroke-width="0.0" fill="rgb(0,0,0)" stroke-linecap="butt" stroke-miterlimit="10.0"><path d="M 82.5757,302.1119 l 5.0451,-17.9968 l -5.6469,3.2698 l -5.8949,-2.7981 Z"/></g><g stroke-linejoin="miter" stroke-opacity="1.0" fill-opacity="1.0" stroke="rgb(0,0,0)" stroke-width="0.0" fill="rgb(0,0,0)" stroke-linecap="butt" stroke-miterlimit="10.0"><path d="M 81.9738,287.3848 l -0.0170,-0.4165 l 0.7923,-0.0324 l -0.7753,0.4489 l -0.0170,-0.4165 l -0.7923,0.0324 Z"/></g><g stroke-linejoin="miter" stroke-opacity="1.0" fill-opacity="0.0" stroke="rgb(0,0,0)" stroke-width="1.5859145902297376" fill="rgb(0,0,0)" stroke-linecap="butt" stroke-miterlimit="10.0"><path d="M 72.0105,269.0759 c -4.6932,6.6700 -11.0810,15.7427 -16.4602 23.3883"/></g><g stroke-linejoin="miter" stroke-opacity="1.0" fill-opacity="1.0" stroke="rgb(0,0,0)" stroke-width="0.0" fill="rgb(0,0,0)" stroke-linecap="butt" stroke-miterlimit="10.0"></g><g stroke-linejoin="miter" stroke-opacity="1.0" fill-opacity="1.0" stroke="rgb(0,0,0)" stroke-width="0.0" fill="rgb(0,0,0)" stroke-linecap="butt" stroke-miterlimit="10.0"></g><g stroke-linejoin="miter" stroke-opacity="1.0" fill-opacity="1.0" stroke="rgb(0,0,0)" stroke-width="0.0" fill="rgb(0,0,0)" stroke-linecap="butt" stroke-miterlimit="10.0"><path d="M 46.8290,304.8598 l 14.9523,-11.2146 l -6.4710,-0.8401 l -2.9765,-5.8069 Z"/></g><g stroke-linejoin="miter" stroke-opacity="1.0" fill-opacity="1.0" stroke="rgb(0,0,0)" stroke-width="0.0" fill="rgb(0,0,0)" stroke-linecap="butt" stroke-miterlimit="10.0"><path d="M 55.3104,292.8051 l 0.2399,-0.3410 l 0.6485,0.4563 l -0.8884,-0.1153 l 0.2399,-0.3410 l -0.6485,-0.4563 Z"/></g><g stroke-linejoin="miter" stroke-opacity="1.0" fill-opacity="0.0" stroke="rgb(0,0,0)" stroke-width="1.5859145902297376" fill="rgb(0,0,0)" stroke-linecap="butt" stroke-miterlimit="10.0"><path d="M 217.3988,210.5165 c 1.6667,5.1196 3.7382,11.5055 5.6278 17.3306"/></g><g stroke-linejoin="miter" stroke-opacity="1.0" fill-opacity="1.0" stroke="rgb(0,0,0)" stroke-width="0.0" fill="rgb(0,0,0)" stroke-linecap="butt" stroke-miterlimit="10.0"></g><g stroke-linejoin="miter" stroke-opacity="1.0" fill-opacity="1.0" stroke="rgb(0,0,0)" stroke-width="0.0" fill="rgb(0,0,0)" stroke-linecap="butt" stroke-miterlimit="10.0"></g><g stroke-linejoin="miter" stroke-opacity="1.0" fill-opacity="1.0" stroke="rgb(0,0,0)" stroke-width="0.0" fill="rgb(0,0,0)" stroke-linecap="butt" stroke-miterlimit="10.0"><path d="M 227.7032,242.2638 l 0.0090,-18.6906 l -4.5570,4.6705 l -6.4308,-1.1062 Z"/></g><g stroke-linejoin="miter" stroke-opacity="1.0" fill-opacity="1.0" stroke="rgb(0,0,0)" stroke-width="0.0" fill="rgb(0,0,0)" stroke-linecap="butt" stroke-miterlimit="10.0"><path d="M 223.1552,228.2437 l -0.1286,-0.3965 l 0.7543,-0.2447 l -0.6256,0.6412 l -0.1286,-0.3965 l -0.7543,0.2447 Z"/></g><g stroke-linejoin="miter" stroke-opacity="1.0" fill-opacity="0.0" stroke="rgb(0,0,0)" stroke-width="1.5859145902297376" fill="rgb(0,0,0)" stroke-linecap="butt" stroke-miterlimit="10.0"><path d="M 202.3650,207.1843 c -7.0363,7.5381 -17.3261,18.5523 -25.5306 27.3398"/></g><g stroke-linejoin="miter" stroke-opacity="1.0" fill-opacity="1.0" stroke="rgb(0,0,0)" stroke-width="0.0" fill="rgb(0,0,0)" stroke-linecap="butt" stroke-miterlimit="10.0"></g><g stroke-linejoin="miter" stroke-opacity="1.0" fill-opacity="1.0" stroke="rgb(0,0,0)" stroke-width="0.0" fill="rgb(0,0,0)" stroke-linecap="butt" stroke-miterlimit="10.0"></g><g stroke-linejoin="miter" stroke-opacity="1.0" fill-opacity="1.0" stroke="rgb(0,0,0)" stroke-width="0.0" fill="rgb(0,0,0)" stroke-linecap="butt" stroke-miterlimit="10.0"><path d="M 166.4911,245.6023 l 16.3527,-9.0514 l -6.2939,-1.7221 l -2.1495,-6.1611 Z"/></g><g stroke-linejoin="miter" stroke-opacity="1.0" fill-opacity="1.0" stroke="rgb(0,0,0)" stroke-width="0.0" fill="rgb(0,0,0)" stroke-linecap="butt" stroke-miterlimit="10.0"><path d="M 176.5499,234.8288 l 0.2845,-0.3047 l 0.5796,0.5412 l -0.8641,-0.2364 l 0.2845,-0.3047 l -0.5796,-0.5412 Z"/></g><g stroke-linejoin="miter" stroke-opacity="1.0" fill-opacity="0.0" stroke="rgb(0,0,0)" stroke-width="1.5859145902297376" fill="rgb(0,0,0)" stroke-linecap="butt" stroke-miterlimit="10.0"><path d="M 198.9324,202.4271 c -21.3601,9.8040 -65.2214,29.9357 -90.6512 41.6082"/></g><g stroke-linejoin="miter" stroke-opacity="1.0" fill-opacity="1.0" stroke="rgb(0,0,0)" stroke-width="0.0" fill="rgb(0,0,0)" stroke-linecap="butt" stroke-miterlimit="10.0"></g><g stroke-linejoin="miter" stroke-opacity="1.0" fill-opacity="1.0" stroke="rgb(0,0,0)" stroke-width="0.0" fill="rgb(0,0,0)" stroke-linecap="butt" stroke-miterlimit="10.0"></g><g stroke-linejoin="miter" stroke-opacity="1.0" fill-opacity="1.0" stroke="rgb(0,0,0)" stroke-width="0.0" fill="rgb(0,0,0)" stroke-linecap="butt" stroke-miterlimit="10.0"><path d="M 94.5066,250.3579 l 18.5647,-2.1662 l -5.1691,-3.9825 l 0.3502,-6.5159 Z"/></g><g stroke-linejoin="miter" stroke-opacity="1.0" fill-opacity="1.0" stroke="rgb(0,0,0)" stroke-width="0.0" fill="rgb(0,0,0)" stroke-linecap="butt" stroke-miterlimit="10.0"><path d="M 107.9022,244.2092 l 0.3789,-0.1739 l 0.3308,0.7207 l -0.7097,-0.5468 l 0.3789,-0.1739 l -0.3308,-0.7207 Z"/></g><g stroke-linejoin="miter" stroke-opacity="1.0" fill-opacity="0.0" stroke="rgb(0,0,0)" stroke-width="1.5859145902297376" fill="rgb(0,0,0)" stroke-linecap="butt" stroke-miterlimit="10.0"><path d="M 267.7250,150.6575 c 1.1659,19.2146 3.1977,55.4631 3.9641 86.3736c 0.3216,13.1647 0.1382,16.4562 0.0377 29.6293c -0.0542,6.5905 -0.1623,13.7595 -0.2791 20.2875"/></g><g stroke-linejoin="miter" stroke-opacity="1.0" fill-opacity="1.0" stroke="rgb(0,0,0)" stroke-width="0.0" fill="rgb(0,0,0)" stroke-linecap="butt" stroke-miterlimit="10.0"></g><g stroke-linejoin="miter" stroke-opacity="1.0" fill-opacity="1.0" stroke="rgb(0,0,0)" stroke-width="0.0" fill="rgb(0,0,0)" stroke-linecap="butt" stroke-miterlimit="10.0"></g><g stroke-linejoin="miter" stroke-opacity="1.0" fill-opacity="1.0" stroke="rgb(0,0,0)" stroke-width="0.0" fill="rgb(0,0,0)" stroke-linecap="butt" stroke-miterlimit="10.0"><path d="M 271.1767,302.1017 l 6.0927,-17.6697 l -5.8291,2.9327 l -5.7205,-3.1393 Z"/></g><g stroke-linejoin="miter" stroke-opacity="1.0" fill-opacity="1.0" stroke="rgb(0,0,0)" stroke-width="0.0" fill="rgb(0,0,0)" stroke-linecap="butt" stroke-miterlimit="10.0"><path d="M 271.4403,287.3647 l 0.0075,-0.4168 l 0.7928,0.0142 l -0.8003,0.4026 l 0.0075,-0.4168 l -0.7928,-0.0142 Z"/></g><g stroke-linejoin="miter" stroke-opacity="1.0" fill-opacity="0.0" stroke="rgb(0,0,0)" stroke-width="1.5859145902297376" fill="rgb(0,0,0)" stroke-linecap="butt" stroke-miterlimit="10.0"><path d="M 252.6295,140.8870 c -29.4282,11.1215 -98.0358,42.0003 -120.8093 95.2122c -5.3819,12.5709 -6.6945,18.3723 -0.8878 30.7545c 7.3978,15.7823 23.3386,27.6530 36.6401 35.2975"/></g><g stroke-linejoin="miter" stroke-opacity="1.0" fill-opacity="1.0" stroke="rgb(0,0,0)" stroke-width="0.0" fill="rgb(0,0,0)" stroke-linecap="butt" stroke-miterlimit="10.0"></g><g stroke-linejoin="miter" stroke-opacity="1.0" fill-opacity="1.0" stroke="rgb(0,0,0)" stroke-width="0.0" fill="rgb(0,0,0)" stroke-linecap="butt" stroke-miterlimit="10.0"></g><g stroke-linejoin="miter" stroke-opacity="1.0" fill-opacity="1.0" stroke="rgb(0,0,0)" stroke-width="0.0" fill="rgb(0,0,0)" stroke-linecap="butt" stroke-miterlimit="10.0"><path d="M 180.7132,309.7034 l -12.5340,-13.8650 l -0.2453,6.5207 l -5.5106,3.4946 Z"/></g><g stroke-linejoin="miter" stroke-opacity="1.0" fill-opacity="1.0" stroke="rgb(0,0,0)" stroke-width="0.0" fill="rgb(0,0,0)" stroke-linecap="butt" stroke-miterlimit="10.0"><path d="M 167.9340,302.3590 l -0.3614,-0.2077 l 0.3951,-0.6875 l -0.0337,0.8952 l -0.3614,-0.2077 l -0.3951,0.6875 Z"/></g><g stroke-linejoin="miter" stroke-opacity="1.0" fill-opacity="0.0" stroke="rgb(0,0,0)" stroke-width="1.5859145902297376" fill="rgb(0,0,0)" stroke-linecap="butt" stroke-miterlimit="10.0"><path d="M 279.2338,144.2060 c 3.0065,2.0993 6.3454,4.2741 9.5560 6.0589c 28.3034,15.7245 38.4982,13.2797 66.9432 28.7720c 0.9829,0.5374 1.9803,1.1055 2.9848 1.6965"/></g><g stroke-linejoin="miter" stroke-opacity="1.0" fill-opacity="1.0" stroke="rgb(0,0,0)" stroke-width="0.0" fill="rgb(0,0,0)" stroke-linecap="butt" stroke-miterlimit="10.0"></g><g stroke-linejoin="miter" stroke-opacity="1.0" fill-opacity="1.0" stroke="rgb(0,0,0)" stroke-width="0.0" fill="rgb(0,0,0)" stroke-linecap="butt" stroke-miterlimit="10.0"></g><g stroke-linejoin="miter" stroke-opacity="1.0" fill-opacity="1.0" stroke="rgb(0,0,0)" stroke-width="0.0" fill="rgb(0,0,0)" stroke-linecap="butt" stroke-miterlimit="10.0"><path d="M 371.7808,188.4191 l -12.3919,-13.9921 l -0.3117,6.5178 l -5.5460,3.4382 Z"/></g><g stroke-linejoin="miter" stroke-opacity="1.0" fill-opacity="1.0" stroke="rgb(0,0,0)" stroke-width="0.0" fill="rgb(0,0,0)" stroke-linecap="butt" stroke-miterlimit="10.0"><path d="M 359.0771,180.9448 l -0.3593,-0.2114 l 0.4021,-0.6834 l -0.0428,0.8948 l -0.3593,-0.2114 l -0.4021,0.6834 Z"/></g><g stroke-linejoin="miter" stroke-opacity="1.0" fill-opacity="0.0" stroke="rgb(0,0,0)" stroke-width="1.5859145902297376" fill="rgb(0,0,0)" stroke-linecap="butt" stroke-miterlimit="10.0"><path d="M 278.4673,145.2116 c 10.0796,8.3700 26.1009,21.6776 37.9701 31.5312"/></g><g stroke-linejoin="miter" stroke-opacity="1.0" fill-opacity="1.0" stroke="rgb(0,0,0)" stroke-width="0.0" fill="rgb(0,0,0)" stroke-linecap="butt" stroke-miterlimit="10.0"></g><g stroke-linejoin="miter" stroke-opacity="1.0" fill-opacity="1.0" stroke="rgb(0,0,0)" stroke-width="0.0" fill="rgb(0,0,0)" stroke-linecap="butt" stroke-miterlimit="10.0"></g><g stroke-linejoin="miter" stroke-opacity="1.0" fill-opacity="1.0" stroke="rgb(0,0,0)" stroke-width="0.0" fill="rgb(0,0,0)" stroke-linecap="butt" stroke-miterlimit="10.0"><path d="M 328.0989,186.4238 l -9.9878,-15.7982 l -1.3529,6.3835 l -6.0255,2.5044 Z"/></g><g stroke-linejoin="miter" stroke-opacity="1.0" fill-opacity="1.0" stroke="rgb(0,0,0)" stroke-width="0.0" fill="rgb(0,0,0)" stroke-linecap="butt" stroke-miterlimit="10.0"><path d="M 316.7582,177.0090 l -0.3208,-0.2663 l 0.5065,-0.6101 l -0.1857,0.8764 l -0.3208,-0.2663 l -0.5065,0.6101 Z"/></g><g stroke-linejoin="miter" stroke-opacity="1.0" fill-opacity="0.0" stroke="rgb(0,0,0)" stroke-width="1.5859145902297376" fill="rgb(0,0,0)" stroke-linecap="butt" stroke-miterlimit="10.0"><path d="M 256.7107,146.8328 c -6.6159,7.4070 -16.1640,18.0969 -23.8132 26.6625"/></g><g stroke-linejoin="miter" stroke-opacity="1.0" fill-opacity="1.0" stroke="rgb(0,0,0)" stroke-width="0.0" fill="rgb(0,0,0)" stroke-linecap="butt" stroke-miterlimit="10.0"></g><g stroke-linejoin="miter" stroke-opacity="1.0" fill-opacity="1.0" stroke="rgb(0,0,0)" stroke-width="0.0" fill="rgb(0,0,0)" stroke-linecap="butt" stroke-miterlimit="10.0"></g><g stroke-linejoin="miter" stroke-opacity="1.0" fill-opacity="1.0" stroke="rgb(0,0,0)" stroke-width="0.0" fill="rgb(0,0,0)" stroke-linecap="butt" stroke-miterlimit="10.0"><path d="M 222.8022,184.8000 l 16.1481,-9.4116 l -6.3305,-1.5822 l -2.2855,-6.1119 Z"/></g><g stroke-linejoin="miter" stroke-opacity="1.0" fill-opacity="1.0" stroke="rgb(0,0,0)" stroke-width="0.0" fill="rgb(0,0,0)" stroke-linecap="butt" stroke-miterlimit="10.0"><path d="M 232.6198,173.8062 l 0.2777,-0.3109 l 0.5915,0.5282 l -0.8691,-0.2172 l 0.2777,-0.3109 l -0.5915,-0.5282 Z"/></g><g stroke-linejoin="miter" stroke-opacity="1.0" fill-opacity="0.0" stroke="rgb(0,0,0)" stroke-width="1.5859145902297376" fill="rgb(0,0,0)" stroke-linecap="butt" stroke-miterlimit="10.0"><path d="M 300.1962,85.1015 c 9.0077,8.1203 22.7964,20.5490 33.4381 30.1372"/></g><g stroke-linejoin="miter" stroke-opacity="1.0" fill-opacity="1.0" stroke="rgb(0,0,0)" stroke-width="0.0" fill="rgb(0,0,0)" stroke-linecap="butt" stroke-miterlimit="10.0"></g><g stroke-linejoin="miter" stroke-opacity="1.0" fill-opacity="1.0" stroke="rgb(0,0,0)" stroke-width="0.0" fill="rgb(0,0,0)" stroke-linecap="butt" stroke-miterlimit="10.0"></g><g stroke-linejoin="miter" stroke-opacity="1.0" fill-opacity="1.0" stroke="rgb(0,0,0)" stroke-width="0.0" fill="rgb(0,0,0)" stroke-linecap="butt" stroke-miterlimit="10.0"><path d="M 344.8943,125.3838 l -9.3400,-16.1896 l -1.6102,6.3235 l -6.1220,2.2584 Z"/></g><g stroke-linejoin="miter" stroke-opacity="1.0" fill-opacity="1.0" stroke="rgb(0,0,0)" stroke-width="0.0" fill="rgb(0,0,0)" stroke-linecap="butt" stroke-miterlimit="10.0"><path d="M 333.9441,115.5177 l -0.3097,-0.2791 l 0.5308,-0.5891 l -0.2211,0.8682 l -0.3097,-0.2791 l -0.5308,0.5891 Z"/></g><g stroke-linejoin="miter" stroke-opacity="1.0" fill-opacity="0.0" stroke="rgb(0,0,0)" stroke-width="1.5859145902297376" fill="rgb(0,0,0)" stroke-linecap="butt" stroke-miterlimit="10.0"><path d="M 294.1441,89.1877 c 1.9302,5.2785 4.3545,11.9140 6.5288 17.8680"/></g><g stroke-linejoin="miter" stroke-opacity="1.0" fill-opacity="1.0" stroke="rgb(0,0,0)" stroke-width="0.0" fill="rgb(0,0,0)" stroke-linecap="butt" stroke-miterlimit="10.0"></g><g stroke-linejoin="miter" stroke-opacity="1.0" fill-opacity="1.0" stroke="rgb(0,0,0)" stroke-width="0.0" fill="rgb(0,0,0)" stroke-linecap="butt" stroke-miterlimit="10.0"></g><g stroke-linejoin="miter" stroke-opacity="1.0" fill-opacity="1.0" stroke="rgb(0,0,0)" stroke-width="0.0" fill="rgb(0,0,0)" stroke-linecap="butt" stroke-miterlimit="10.0"><path d="M 305.8719,121.2924 l -0.6723,-18.6785 l -4.3837,4.8335 l -6.4669,-0.8710 Z"/></g><g stroke-linejoin="miter" stroke-opacity="1.0" fill-opacity="1.0" stroke="rgb(0,0,0)" stroke-width="0.0" fill="rgb(0,0,0)" stroke-linecap="butt" stroke-miterlimit="10.0"><path d="M 300.8159,107.4473 l -0.1430,-0.3916 l 0.7448,-0.2720 l -0.6018,0.6636 l -0.1430,-0.3916 l -0.7448,0.2720 Z"/></g><g stroke-linejoin="miter" stroke-opacity="1.0" fill-opacity="0.0" stroke="rgb(0,0,0)" stroke-width="1.5859145902297376" fill="rgb(0,0,0)" stroke-linecap="butt" stroke-miterlimit="10.0"><path d="M 283.7435,89.1912 c -1.9261,5.2784 -4.3528,11.9139 -6.5293 17.8679"/></g><g stroke-linejoin="miter" stroke-opacity="1.0" fill-opacity="1.0" stroke="rgb(0,0,0)" stroke-width="0.0" fill="rgb(0,0,0)" stroke-linecap="butt" stroke-miterlimit="10.0"></g><g stroke-linejoin="miter" stroke-opacity="1.0" fill-opacity="1.0" stroke="rgb(0,0,0)" stroke-width="0.0" fill="rgb(0,0,0)" stroke-linecap="butt" stroke-miterlimit="10.0"></g><g stroke-linejoin="miter" stroke-opacity="1.0" fill-opacity="1.0" stroke="rgb(0,0,0)" stroke-width="0.0" fill="rgb(0,0,0)" stroke-linecap="butt" stroke-miterlimit="10.0"><path d="M 272.0106,121.2940 l 11.5276,-14.7124 l -6.4671,0.8689 l -4.3821,-4.8349 Z"/></g><g stroke-linejoin="miter" stroke-opacity="1.0" fill-opacity="1.0" stroke="rgb(0,0,0)" stroke-width="0.0" fill="rgb(0,0,0)" stroke-linecap="butt" stroke-miterlimit="10.0"><path d="M 277.0711,107.4506 l 0.1431,-0.3915 l 0.7448,0.2722 l -0.8879,0.1193 l 0.1431,-0.3915 l -0.7448,-0.2722 Z"/></g><g stroke-linejoin="miter" stroke-opacity="1.0" fill-opacity="0.0" stroke="rgb(0,0,0)" stroke-width="1.5859145902297376" fill="rgb(0,0,0)" stroke-linecap="butt" stroke-miterlimit="10.0"><path d="M 322.3945,25.2303 c 8.9556,7.9674 22.6645,20.1619 33.2446 29.5746"/></g><g stroke-linejoin="miter" stroke-opacity="1.0" fill-opacity="1.0" stroke="rgb(0,0,0)" stroke-width="0.0" fill="rgb(0,0,0)" stroke-linecap="butt" stroke-miterlimit="10.0"></g><g stroke-linejoin="miter" stroke-opacity="1.0" fill-opacity="1.0" stroke="rgb(0,0,0)" stroke-width="0.0" fill="rgb(0,0,0)" stroke-linecap="butt" stroke-miterlimit="10.0"></g><g stroke-linejoin="miter" stroke-opacity="1.0" fill-opacity="1.0" stroke="rgb(0,0,0)" stroke-width="0.0" fill="rgb(0,0,0)" stroke-linecap="butt" stroke-miterlimit="10.0"><path d="M 366.9626,64.8791 l -9.4416,-16.1305 l -1.5704,6.3335 l -6.1077,2.2969 Z"/></g><g stroke-linejoin="miter" stroke-opacity="1.0" fill-opacity="1.0" stroke="rgb(0,0,0)" stroke-width="0.0" fill="rgb(0,0,0)" stroke-linecap="butt" stroke-miterlimit="10.0"><path d="M 355.9505,55.0820 l -0.3115,-0.2771 l 0.5271,-0.5924 l -0.2156,0.8695 l -0.3115,-0.2771 l -0.5271,0.5924 Z"/></g><g stroke-linejoin="miter" stroke-opacity="1.0" fill-opacity="0.0" stroke="rgb(0,0,0)" stroke-width="1.5859145902297376" fill="rgb(0,0,0)" stroke-linecap="butt" stroke-miterlimit="10.0"><path d="M 316.3350,29.3689 c 1.8748,5.0618 4.2298,11.4229 6.3503 17.1550"/></g><g stroke-linejoin="miter" stroke-opacity="1.0" fill-opacity="1.0" stroke="rgb(0,0,0)" stroke-width="0.0" fill="rgb(0,0,0)" stroke-linecap="butt" stroke-miterlimit="10.0"></g><g stroke-linejoin="miter" stroke-opacity="1.0" fill-opacity="1.0" stroke="rgb(0,0,0)" stroke-width="0.0" fill="rgb(0,0,0)" stroke-linecap="butt" stroke-miterlimit="10.0"></g><g stroke-linejoin="miter" stroke-opacity="1.0" fill-opacity="1.0" stroke="rgb(0,0,0)" stroke-width="0.0" fill="rgb(0,0,0)" stroke-linecap="butt" stroke-miterlimit="10.0"><path d="M 327.9440,60.7386 l -0.7507,-18.6755 l -4.3634,4.8518 l -6.4705,-0.8439 Z"/></g><g stroke-linejoin="miter" stroke-opacity="1.0" fill-opacity="1.0" stroke="rgb(0,0,0)" stroke-width="0.0" fill="rgb(0,0,0)" stroke-linecap="butt" stroke-miterlimit="10.0"><path d="M 322.8300,46.9149 l -0.1446,-0.3910 l 0.7437,-0.2751 l -0.5991,0.6661 l -0.1446,-0.3910 l -0.7437,0.2751 Z"/></g><g stroke-linejoin="miter" stroke-opacity="1.0" fill-opacity="0.0" stroke="rgb(0,0,0)" stroke-width="1.5859145902297376" fill="rgb(0,0,0)" stroke-linecap="butt" stroke-miterlimit="10.0"><path d="M 305.8067,29.3689 c -1.8748,5.0618 -4.2298,11.4229 -6.3503 17.1550"/></g><g stroke-linejoin="miter" stroke-opacity="1.0" fill-opacity="1.0" stroke="rgb(0,0,0)" stroke-width="0.0" fill="rgb(0,0,0)" stroke-linecap="butt" stroke-miterlimit="10.0"></g><g stroke-linejoin="miter" stroke-opacity="1.0" fill-opacity="1.0" stroke="rgb(0,0,0)" stroke-width="0.0" fill="rgb(0,0,0)" stroke-linecap="butt" stroke-miterlimit="10.0"></g><g stroke-linejoin="miter" stroke-opacity="1.0" fill-opacity="1.0" stroke="rgb(0,0,0)" stroke-width="0.0" fill="rgb(0,0,0)" stroke-linecap="butt" stroke-miterlimit="10.0"><path d="M 294.1977,60.7386 l 11.5845,-14.6676 l -6.4705,0.8439 l -4.3634,-4.8518 Z"/></g><g stroke-linejoin="miter" stroke-opacity="1.0" fill-opacity="1.0" stroke="rgb(0,0,0)" stroke-width="0.0" fill="rgb(0,0,0)" stroke-linecap="butt" stroke-miterlimit="10.0"><path d="M 299.3117,46.9149 l 0.1446,-0.3910 l 0.7437,0.2751 l -0.8883,0.1159 l 0.1446,-0.3910 l -0.7437,-0.2751 Z"/></g></svg>