<?xml version="1.0" encoding="UTF-8"?>
<!DOCTYPE svg PUBLIC "-//W3C//DTD SVG 1.1//EN"
    "http://www.w3.org/Graphics/SVG/1.1/DTD/svg11.dtd"><svg xmlns="http://www.w3.org/2000/svg" height="597.1000" stroke-opacity="1" viewBox="0 0 597 597" font-size="1" width="596.6600" xmlns:xlink="http://www.w3.org/1999/xlink" stroke="rgb(0,0,0)" version="1.1"><defs></defs><g stroke-linejoin="miter" stroke-opacity="1.0" fill-opacity="0.0" stroke="rgb(0,0,0)" stroke-width="2.387519837823343" fill="rgb(0,0,0)" stroke-linecap="butt" stroke-miterlimit="10.0"><path d="M 363.3200,73.4100 c 0.0000,-10.4934 -8.5066,-19.0000 -19.0000 -19.0000c -10.4934,-0.0000 -19.0000,8.5066 -19.0000 19.0000c -0.0000,10.4934 8.5066,19.0000 19.0000 19.0000c 10.4934,0.0000 19.0000,-8.5066 19.0000 -19.0000Z"/></g><g stroke-linejoin="miter" stroke-opacity="1.0" fill-opacity="0.0" stroke="rgb(0,0,0)" stroke-width="2.387519837823343" fill="rgb(0,0,0)" stroke-linecap="butt" stroke-miterlimit="10.0"><path d="M 338.3200,119.3100 c 0.0000,-10.4934 -8.5066,-19.0000 -19.0000 -19.0000c -10.4934,-0.0000 -19.0000,8.5066 -19.0000 19.0000c -0.0000,10.4934 8.5066,19.0000 19.0000 19.0000c 10.4934,0.0000 19.0000,-8.5066 19.0000 -19.0000Z"/></g><g stroke-linejoin="miter" stroke-opacity="1.0" fill-opacity="0.0" stroke="rgb(0,0,0)" stroke-width="2.387519837823343" fill="rgb(0,0,0)" stroke-linecap="butt" stroke-miterlimit="10.0"><path d="M 88.8560,470.7400 c 0.0000,-10.4934 -8.5066,-19.0000 -19.0000 -19.0000c -10.4934,-0.0000 -19.0000,8.5066 -19.0000 19.0000c -0.0000,10.4934 8.5066,19.0000 19.0000 19.0000c 10.4934,0.0000 19.0000,-8.5066 19.0000 -19.0000Z"/></g><g stroke-linejoin="miter" stroke-opacity="1.0" fill-opacity="0.0" stroke="rgb(0,0,0)" stroke-width="2.387519837823343" fill="rgb(0,0,0)" stroke-linecap="butt" stroke-miterlimit="10.0"><path d="M 39.0000,291.0500 c 0.0000,-10.4934 -8.5066,-19.0000 -19.0000 -19.0000c -10.4934,-0.0000 -19.0000,8.5066 -19.0000 19.0000c -0.0000,10.4934 8.5066,19.0000 19.0000 19.0000c 10.4934,0.0000 19.0000,-8.5066 19.0000 -19.0000Z"/></g><g stroke-linejoin="miter" stroke-opacity="1.0" fill-opacity="0.0" stroke="rgb(0,0,0)" stroke-width="2.387519837823343" fill="rgb(0,0,0)" stroke-linecap="butt" stroke-miterlimit="10.0"><path d="M 270.6400,20.0000 c 0.0000,-10.4934 -8.5066,-19.0000 -19.0000 -19.0000c -10.4934,-0.0000 -19.0000,8.5066 -19.0000 19.0000c -0.0000,10.4934 8.5066,19.0000 19.0000 19.0000c 10.4934,0.0000 19.0000,-8.5066 19.0000 -19.0000Z"/></g><g stroke-linejoin="miter" stroke-opacity="1.0" fill-opacity="0.0" stroke="rgb(0,0,0)" stroke-width="2.387519837823343" fill="rgb(0,0,0)" stroke-linecap="butt" stroke-miterlimit="10.0"><path d="M 508.1300,66.1900 c 0.0000,-10.4934 -8.5066,-19.0000 -19.0000 -19.0000c -10.4934,-0.0000 -19.0000,8.5066 -19.0000 19.0000c -0.0000,10.4934 8.5066,19.0000 19.0000 19.0000c 10.4934,0.0000 19.0000,-8.5066 19.0000 -19.0000Z"/></g><g stroke-linejoin="miter" stroke-opacity="1.0" fill-opacity="0.0" stroke="rgb(0,0,0)" stroke-width="2.387519837823343" fill="rgb(0,0,0)" stroke-linecap="butt" stroke-miterlimit="10.0"><path d="M 595.6600,319.9700 c 0.0000,-10.4934 -8.5066,-19.0000 -19.0000 -19.0000c -10.4934,-0.0000 -19.0000,8.5066 -19.0000 19.0000c -0.0000,10.4934 8.5066,19.0000 19.0000 19.0000c 10.4934,0.0000 19.0000,-8.5066 19.0000 -19.0000Z"/></g><g stroke-linejoin="miter" stroke-opacity="1.0" fill-opacity="0.0" stroke="rgb(0,0,0)" stroke-width="2.387519837823343" fill="rgb(0,0,0)" stroke-linecap="butt" stroke-miterlimit="10.0"><path d="M 443.6600,549.1670 c 0.0000,-10.4934 -8.5066,-19.0000 -19.0000 -19.0000c -10.4934,-0.0000 -19.0000,8.5066 -19.0000 19.0000c -0.0000,10.4934 8.5066,19.0000 19.0000 19.0000c 10.4934,0.0000 19.0000,-8.5066 19.0000 -19.0000Z"/></g><g stroke-linejoin="miter" stroke-opacity="1.0" fill-opacity="0.0" stroke="rgb(0,0,0)" stroke-width="2.387519837823343" fill="rgb(0,0,0)" stroke-linecap="butt" stroke-miterlimit="10.0"><path d="M 164.9800,536.7390 c 0.0000,-10.4934 -8.5066,-19.0000 -19.0000 -19.0000c -10.4934,-0.0000 -19.0000,8.5066 -19.0000 19.0000c -0.0000,10.4934 8.5066,19.0000 19.0000 19.0000c 10.4934,0.0000 19.0000,-8.5066 19.0000 -19.0000Z"/></g><g stroke-linejoin="miter" stroke-opacity="1.0" fill-opacity="0.0" stroke="rgb(0,0,0)" stroke-width="2.387519837823343" fill="rgb(0,0,0)" stroke-linecap="butt" stroke-miterlimit="10.0"><path d="M 48.3620,196.2800 c 0.0000,-10.4934 -8.5066,-19.0000 -19.0000 -19.0000c -10.4934,-0.0000 -19.0000,8.5066 -19.0000 19.0000c -0.0000,10.4934 8.5066,19.0000 19.0000 19.0000c 10.4934,0.0000 19.0000,-8.5066 19.0000 -19.0000Z"/></g><g stroke-linejoin="miter" stroke-opacity="1.0" fill-opacity="0.0" stroke="rgb(0,0,0)" stroke-width="2.387519837823343" fill="rgb(0,0,0)" stroke-linecap="butt" stroke-miterlimit="10.0"><path d="M 166.0300,51.8300 c 0.0000,-10.4934 -8.5066,-19.0000 -19.0000 -19.0000c -10.4934,-0.0000 -19.0000,8.5066 -19.0000 19.0000c -0.0000,10.4934 8.5066,19.0000 19.0000 19.0000c 10.4934,0.0000 19.0000,-8.5066 19.0000 -19.0000Z"/></g><g stroke-linejoin="miter" stroke-opacity="1.0" fill-opacity="0.0" stroke="rgb(0,0,0)" stroke-width="2.387519837823343" fill="rgb(0,0,0)" stroke-linecap="butt" stroke-miterlimit="10.0"><path d="M 547.8600,149.7200 c 0.0000,-10.4934 -8.5066,-19.0000 -19.0000 -19.0000c -10.4934,-0.0000 -19.0000,8.5066 -19.0000 19.0000c -0.0000,10.4934 8.5066,19.0000 19.0000 19.0000c 10.4934,0.0000 19.0000,-8.5066 19.0000 -19.0000Z"/></g><g stroke-linejoin="miter" stroke-opacity="1.0" fill-opacity="0.0" stroke="rgb(0,0,0)" stroke-width="2.387519837823343" fill="rgb(0,0,0)" stroke-linecap="butt" stroke-miterlimit="10.0"><path d="M 563.6300,408.4300 c 0.0000,-10.4934 -8.5066,-19.0000 -19.0000 -19.0000c -10.4934,-0.0000 -19.0000,8.5066 -19.0000 19.0000c -0.0000,10.4934 8.5066,19.0000 19.0000 19.0000c 10.4934,0.0000 19.0000,-8.5066 19.0000 -19.0000Z"/></g><g stroke-linejoin="miter" stroke-opacity="1.0" fill-opacity="0.0" stroke="rgb(0,0,0)" stroke-width="2.387519837823343" fill="rgb(0,0,0)" stroke-linecap="butt" stroke-miterlimit="10.0"><path d="M 347.1100,577.1000 c 0.0000,-10.4934 -8.5066,-19.0000 -19.0000 -19.0000c -10.4934,-0.0000 -19.0000,8.5066 -19.0000 19.0000c -0.0000,10.4934 8.5066,19.0000 19.0000 19.0000c 10.4934,0.0000 19.0000,-8.5066 19.0000 -19.0000Z"/></g><g stroke-linejoin="miter" stroke-opacity="1.0" fill-opacity="0.0" stroke="rgb(0,0,0)" stroke-width="2.387519837823343" fill="rgb(0,0,0)" stroke-linecap="butt" stroke-miterlimit="10.0"><path d="M 212.9700,408.7600 c 0.0000,-10.4934 -8.5066,-19.0000 -19.0000 -19.0000c -10.4934,-0.0000 -19.0000,8.5066 -19.0000 19.0000c -0.0000,10.4934 8.5066,19.0000 19.0000 19.0000c 10.4934,0.0000 19.0000,-8.5066 19.0000 -19.0000Z"/></g><g stroke-linejoin="miter" stroke-opacity="1.0" fill-opacity="0.0" stroke="rgb(0,0,0)" stroke-width="2.387519837823343" fill="rgb(0,0,0)" stroke-linecap="butt" stroke-miterlimit="10.0"><path d="M 171.6100,266.1100 c 0.0000,-10.4934 -8.5066,-19.0000 -19.0000 -19.0000c -10.4934,-0.0000 -19.0000,8.5066 -19.0000 19.0000c -0.0000,10.4934 8.5066,19.0000 19.0000 19.0000c 10.4934,0.0000 19.0000,-8.5066 19.0000 -19.0000Z"/></g><g stroke-linejoin="miter" stroke-opacity="1.0" fill-opacity="0.0" stroke="rgb(0,0,0)" stroke-width="2.387519837823343" fill="rgb(0,0,0)" stroke-linecap="butt" stroke-miterlimit="10.0"><path d="M 264.1400,157.4000 c 0.0000,-10.4934 -8.5066,-19.0000 -19.0000 -19.0000c -10.4934,-0.0000 -19.0000,8.5066 -19.0000 19.0000c -0.0000,10.4934 8.5066,19.0000 19.0000 19.0000c 10.4934,0.0000 19.0000,-8.5066 19.0000 -19.0000Z"/></g><g stroke-linejoin="miter" stroke-opacity="1.0" fill-opacity="0.0" stroke="rgb(0,0,0)" stroke-width="2.387519837823343" fill="rgb(0,0,0)" stroke-linecap="butt" stroke-miterlimit="10.0"><path d="M 417.6900,186.4000 c 0.0000,-10.4934 -8.5066,-19.0000 -19.0000 -19.0000c -10.4934,-0.0000 -19.0000,8.5066 -19.0000 19.0000c -0.0000,10.4934 8.5066,19.0000 19.0000 19.0000c 10.4934,0.0000 19.0000,-8.5066 19.0000 -19.0000Z"/></g><g stroke-linejoin="miter" stroke-opacity="1.0" fill-opacity="0.0" stroke="rgb(0,0,0)" stroke-width="2.387519837823343" fill="rgb(0,0,0)" stroke-linecap="butt" stroke-miterlimit="10.0"><path d="M 454.2900,328.1500 c 0.0000,-10.4934 -8.5066,-19.0000 -19.0000 -19.0000c -10.4934,-0.0000 -19.0000,8.5066 -19.0000 19.0000c -0.0000,10.4934 8.5066,19.0000 19.0000 19.0000c 10.4934,0.0000 19.0000,-8.5066 19.0000 -19.0000Z"/></g><g stroke-linejoin="miter" stroke-opacity="1.0" fill-opacity="0.0" stroke="rgb(0,0,0)" stroke-width="2.387519837823343" fill="rgb(0,0,0)" stroke-linecap="butt" stroke-miterlimit="10.0"><path d="M 357.1200,440.6000 c 0.0000,-10.4934 -8.5066,-19.0000 -19.0000 -19.0000c -10.4934,-0.0000 -19.0000,8.5066 -19.0000 19.0000c -0.0000,10.4934 8.5066,19.0000 19.0000 19.0000c 10.4934,0.0000 19.0000,-8.5066 19.0000 -19.0000Z"/></g><g stroke-linejoin="miter" stroke-opacity="1.0" fill-opacity="0.0" stroke="rgb(0,0,0)" stroke-width="2.387519837823343" fill="rgb(0,0,0)" stroke-linecap="butt" stroke-miterlimit="10.0"><path d="M 329.1000,85.2000 c -7.4400,5.8400 -16.4900,13.0600 -24.4500 19.7200c -16.0600,13.4400 -34.0300,29.4200 -45.9800 40.1800"/></g><g stroke-linejoin="miter" stroke-opacity="1.0" fill-opacity="0.0" stroke="rgb(0,0,0)" stroke-width="2.387519837823343" fill="rgb(0,0,0)" stroke-linecap="butt" stroke-miterlimit="10.0"><path d="M 302.1100,128.1500 c -12.3200,6.3200 -28.8100,14.7900 -40.8800 20.9800"/></g><g stroke-linejoin="miter" stroke-opacity="1.0" fill-opacity="0.0" stroke="rgb(0,0,0)" stroke-width="2.387519837823343" fill="rgb(0,0,0)" stroke-linecap="butt" stroke-miterlimit="10.0"><path d="M 268.2100,29.5500 c 16.8700,9.7200 42.8700,24.7000 59.6900 34.4000"/></g><g stroke-linejoin="miter" stroke-opacity="1.0" fill-opacity="0.0" stroke="rgb(0,0,0)" stroke-width="2.387519837823343" fill="rgb(0,0,0)" stroke-linecap="butt" stroke-miterlimit="10.0"><path d="M 262.5100,35.9600 c 12.6300,18.5300 33.3400,48.9200 45.9600 67.4400"/></g><g stroke-linejoin="miter" stroke-opacity="1.0" fill-opacity="0.0" stroke="rgb(0,0,0)" stroke-width="2.387519837823343" fill="rgb(0,0,0)" stroke-linecap="butt" stroke-miterlimit="10.0"><path d="M 177.7500,416.8600 c -23.5300,11.7500 -66.9000,33.4100 -90.8670 45.3800"/></g><g stroke-linejoin="miter" stroke-opacity="1.0" fill-opacity="0.0" stroke="rgb(0,0,0)" stroke-width="2.387519837823343" fill="rgb(0,0,0)" stroke-linecap="butt" stroke-miterlimit="10.0"><path d="M 187.6000,425.7500 c -9.1300,24.3400 -25.8400,68.9100 -35.0700 93.5130"/></g><g stroke-linejoin="miter" stroke-opacity="1.0" fill-opacity="0.0" stroke="rgb(0,0,0)" stroke-width="2.387519837823343" fill="rgb(0,0,0)" stroke-linecap="butt" stroke-miterlimit="10.0"><path d="M 211.6500,412.6600 c 27.6700,6.1100 80.9000,17.8700 108.6500 24.0000"/></g><g stroke-linejoin="miter" stroke-opacity="1.0" fill-opacity="0.0" stroke="rgb(0,0,0)" stroke-width="2.387519837823343" fill="rgb(0,0,0)" stroke-linecap="butt" stroke-miterlimit="10.0"><path d="M 134.7300,269.4700 c -25.0300,4.7100 -70.2930,13.2300 -95.8460 18.0300"/></g><g stroke-linejoin="miter" stroke-opacity="1.0" fill-opacity="0.0" stroke="rgb(0,0,0)" stroke-width="2.387519837823343" fill="rgb(0,0,0)" stroke-linecap="butt" stroke-miterlimit="10.0"><path d="M 136.7500,257.1200 c -23.4000,-13.2600 -66.9870,-37.9500 -90.8020 -51.4400"/></g><g stroke-linejoin="miter" stroke-opacity="1.0" fill-opacity="0.0" stroke="rgb(0,0,0)" stroke-width="2.387519837823343" fill="rgb(0,0,0)" stroke-linecap="butt" stroke-miterlimit="10.0"><path d="M 157.6800,283.6000 c 7.9400,27.3800 23.2200,80.0600 31.1800 107.5200"/></g><g stroke-linejoin="miter" stroke-opacity="1.0" fill-opacity="0.0" stroke="rgb(0,0,0)" stroke-width="2.387519837823343" fill="rgb(0,0,0)" stroke-linecap="butt" stroke-miterlimit="10.0"><path d="M 246.0000,139.1500 c 1.2300,-25.9900 3.4800,-73.4400 4.7300 -99.9500"/></g><g stroke-linejoin="miter" stroke-opacity="1.0" fill-opacity="0.0" stroke="rgb(0,0,0)" stroke-width="2.387519837823343" fill="rgb(0,0,0)" stroke-linecap="butt" stroke-miterlimit="10.0"><path d="M 232.7100,144.0300 c -18.8700,-20.3100 -54.5400,-58.7000 -73.3600 -78.9400"/></g><g stroke-linejoin="miter" stroke-opacity="1.0" fill-opacity="0.0" stroke="rgb(0,0,0)" stroke-width="2.387519837823343" fill="rgb(0,0,0)" stroke-linecap="butt" stroke-miterlimit="10.0"><path d="M 233.4200,171.1600 c -17.7000,20.8000 -51.0800,60.0200 -68.8900 80.9500"/></g><g stroke-linejoin="miter" stroke-opacity="1.0" fill-opacity="0.0" stroke="rgb(0,0,0)" stroke-width="2.387519837823343" fill="rgb(0,0,0)" stroke-linecap="butt" stroke-miterlimit="10.0"><path d="M 390.6700,169.7300 c -10.2200,-21.2400 -27.7900,-57.7600 -38.1100 -79.2100"/></g><g stroke-linejoin="miter" stroke-opacity="1.0" fill-opacity="0.0" stroke="rgb(0,0,0)" stroke-width="2.387519837823343" fill="rgb(0,0,0)" stroke-linecap="butt" stroke-miterlimit="10.0"><path d="M 384.8700,174.7100 c -14.2200,-12.0100 -36.2700,-30.6500 -50.8100 -42.9400"/></g><g stroke-linejoin="miter" stroke-opacity="1.0" fill-opacity="0.0" stroke="rgb(0,0,0)" stroke-width="2.387519837823343" fill="rgb(0,0,0)" stroke-linecap="butt" stroke-miterlimit="10.0"><path d="M 409.7800,171.6600 c 17.2700,-22.9500 50.3900,-66.9800 67.8900 -90.2300"/></g><g stroke-linejoin="miter" stroke-opacity="1.0" fill-opacity="0.0" stroke="rgb(0,0,0)" stroke-width="2.387519837823343" fill="rgb(0,0,0)" stroke-linecap="butt" stroke-miterlimit="10.0"><path d="M 416.2500,181.4500 c 24.8400,-7.0000 70.0000,-19.7200 94.9100 -26.7400"/></g><g stroke-linejoin="miter" stroke-opacity="1.0" fill-opacity="0.0" stroke="rgb(0,0,0)" stroke-width="2.387519837823343" fill="rgb(0,0,0)" stroke-linecap="butt" stroke-miterlimit="10.0"><path d="M 380.7800,183.0100 c -29.5900,-5.5800 -88.3300,-16.6800 -117.8400 -22.2500"/></g><g stroke-linejoin="miter" stroke-opacity="1.0" fill-opacity="0.0" stroke="rgb(0,0,0)" stroke-width="2.387519837823343" fill="rgb(0,0,0)" stroke-linecap="butt" stroke-miterlimit="10.0"><path d="M 453.4800,327.1000 c 26.8500,-1.5500 76.8400,-4.4500 104.1500 -6.0300"/></g><g stroke-linejoin="miter" stroke-opacity="1.0" fill-opacity="0.0" stroke="rgb(0,0,0)" stroke-width="2.387519837823343" fill="rgb(0,0,0)" stroke-linecap="butt" stroke-miterlimit="10.0"><path d="M 450.0400,338.9800 c 20.9800,15.4000 59.2200,43.4800 80.0800 58.7900"/></g><g stroke-linejoin="miter" stroke-opacity="1.0" fill-opacity="0.0" stroke="rgb(0,0,0)" stroke-width="2.387519837823343" fill="rgb(0,0,0)" stroke-linecap="butt" stroke-miterlimit="10.0"><path d="M 430.7300,310.4800 c -7.0500,-27.3100 -20.5200,-79.4600 -27.5300 -106.6400"/></g><g stroke-linejoin="miter" stroke-opacity="1.0" fill-opacity="0.0" stroke="rgb(0,0,0)" stroke-width="2.387519837823343" fill="rgb(0,0,0)" stroke-linecap="butt" stroke-miterlimit="10.0"><path d="M 349.4400,454.7900 c 16.4000,20.5800 46.6400,58.5210 63.3500 79.4840"/></g><g stroke-linejoin="miter" stroke-opacity="1.0" fill-opacity="0.0" stroke="rgb(0,0,0)" stroke-width="2.387519837823343" fill="rgb(0,0,0)" stroke-linecap="butt" stroke-miterlimit="10.0"><path d="M 336.7900,458.7300 c -1.9100,26.1000 -5.4300,74.0200 -7.3500 100.1690"/></g><g stroke-linejoin="miter" stroke-opacity="1.0" fill-opacity="0.0" stroke="rgb(0,0,0)" stroke-width="2.387519837823343" fill="rgb(0,0,0)" stroke-linecap="butt" stroke-miterlimit="10.0"><path d="M 350.0400,426.8100 c 18.6500,-21.5800 54.5300,-63.1100 73.2400 -84.7600"/></g></svg>