<?xml version="1.0" encoding="UTF-8"?>
<!DOCTYPE svg PUBLIC "-//W3C//DTD SVG 1.1//EN"
    "http://www.w3.org/Graphics/SVG/1.1/DTD/svg11.dtd"><svg xmlns="http://www.w3.org/2000/svg" height="422.8422" stroke-opacity="1" viewBox="0 0 400 423" font-size="1" width="400.0000" xmlns:xlink="http://www.w3.org/1999/xlink" stroke="rgb(0,0,0)" version="1.1"><defs></defs><g stroke-linejoin="miter" stroke-opacity="1.0" fill-opacity="0.0" stroke="rgb(0,0,0)" stroke-width="1.6450501697604152" fill="rgb(0,0,0)" stroke-linecap="butt" stroke-miterlimit="10.0"><path d="M 52.9687,89.7817 c 0.0000,-1.9653 -1.5932,-3.5585 -3.5585 -3.5585c -1.9653,-0.0000 -3.5585,1.5932 -3.5585 3.5585c -0.0000,1.9653 1.5932,3.5585 3.5585 3.5585c 1.9653,0.0000 3.5585,-1.5932 3.5585 -3.5585Z"/></g><g stroke-linejoin="miter" stroke-opacity="1.0" fill-opacity="0.0" stroke="rgb(0,0,0)" stroke-width="1.6450501697604152" fill="rgb(0,0,0)" stroke-linecap="butt" stroke-miterlimit="10.0"><path d="M 358.6499,163.7066 c 0.0000,-1.9653 -1.5932,-3.5585 -3.5585 -3.5585c -1.9653,-0.0000 -3.5585,1.5932 -3.5585 3.5585c -0.0000,1.9653 1.5932,3.5585 3.5585 3.5585c 1.9653,0.0000 3.5585,-1.5932 3.5585 -3.5585Z"/></g><g stroke-linejoin="miter" stroke-opacity="1.0" fill-opacity="0.0" stroke="rgb(0,0,0)" stroke-width="1.6450501697604152" fill="rgb(0,0,0)" stroke-linecap="butt" stroke-miterlimit="10.0"><path d="M 286.7249,7.1171 c 0.0000,-1.9653 -1.5932,-3.5585 -3.5585 -3.5585c -1.9653,-0.0000 -3.5585,1.5932 -3.5585 3.5585c -0.0000,1.9653 1.5932,3.5585 3.5585 3.5585c 1.9653,0.0000 3.5585,-1.5932 3.5585 -3.5585Z"/></g><g stroke-linejoin="miter" stroke-opacity="1.0" fill-opacity="0.0" stroke="rgb(0,0,0)" stroke-width="1.6450501697604152" fill="rgb(0,0,0)" stroke-linecap="butt" stroke-miterlimit="10.0"><path d="M 168.1156,415.7251 c 0.0000,-1.9653 -1.5932,-3.5585 -3.5585 -3.5585c -1.9653,-0.0000 -3.5585,1.5932 -3.5585 3.5585c -0.0000,1.9653 1.5932,3.5585 3.5585 3.5585c 1.9653,0.0000 3.5585,-1.5932 3.5585 -3.5585Z"/></g><g stroke-linejoin="miter" stroke-opacity="1.0" fill-opacity="0.0" stroke="rgb(0,0,0)" stroke-width="1.6450501697604152" fill="rgb(0,0,0)" stroke-linecap="butt" stroke-miterlimit="10.0"><path d="M 396.4415,383.8585 c 0.0000,-1.9653 -1.5932,-3.5585 -3.5585 -3.5585c -1.9653,-0.0000 -3.5585,1.5932 -3.5585 3.5585c -0.0000,1.9653 1.5932,3.5585 3.5585 3.5585c 1.9653,0.0000 3.5585,-1.5932 3.5585 -3.5585Z"/></g><g stroke-linejoin="miter" stroke-opacity="1.0" fill-opacity="0.0" stroke="rgb(0,0,0)" stroke-width="1.6450501697604152" fill="rgb(0,0,0)" stroke-linecap="butt" stroke-miterlimit="10.0"><path d="M 10.6756,327.7868 c 0.0000,-1.9653 -1.5932,-3.5585 -3.5585 -3.5585c -1.9653,-0.0000 -3.5585,1.5932 -3.5585 3.5585c -0.0000,1.9653 1.5932,3.5585 3.5585 3.5585c 1.9653,0.0000 3.5585,-1.5932 3.5585 -3.5585Z"/></g><g stroke-linejoin="miter" stroke-opacity="1.0" fill-opacity="0.0" stroke="rgb(0,0,0)" stroke-width="1.6450501697604152" fill="rgb(0,0,0)" stroke-linecap="butt" stroke-miterlimit="10.0"><path d="M 291.7638,148.3942 c -52.4634,-12.6862 -126.6516,-30.6069 -179.0936 -43.3109"/></g><g stroke-linejoin="miter" stroke-opacity="1.0" fill-opacity="0.0" stroke="rgb(0,0,0)" stroke-width="1.6450501697604152" fill="rgb(0,0,0)" stroke-linecap="butt" stroke-miterlimit="10.0"><path d="M 221.7497,28.8597 c -34.0871,12.0634 -76.3696,27.0092 -110.5208 39.0726"/></g><g stroke-linejoin="miter" stroke-opacity="1.0" fill-opacity="0.0" stroke="rgb(0,0,0)" stroke-width="1.6450501697604152" fill="rgb(0,0,0)" stroke-linecap="butt" stroke-miterlimit="10.0"><path d="M 309.9692,65.4413 c 5.9072,12.8463 12.1702,26.5110 18.0773 39.3929"/></g><g stroke-linejoin="miter" stroke-opacity="1.0" fill-opacity="0.0" stroke="rgb(0,0,0)" stroke-width="1.6450501697604152" fill="rgb(0,0,0)" stroke-linecap="butt" stroke-miterlimit="10.0"><path d="M 142.8998,354.4224 c -20.5861,-58.2709 -51.3745,-145.4157 -71.9285 -203.5941"/></g><g stroke-linejoin="miter" stroke-opacity="1.0" fill-opacity="0.0" stroke="rgb(0,0,0)" stroke-width="1.6450501697604152" fill="rgb(0,0,0)" stroke-linecap="butt" stroke-miterlimit="10.0"><path d="M 182.5703,353.6680 c 22.2942,-76.7966 60.0395,-206.8288 82.4120 -283.8852"/></g><g stroke-linejoin="miter" stroke-opacity="1.0" fill-opacity="0.0" stroke="rgb(0,0,0)" stroke-width="1.6450501697604152" fill="rgb(0,0,0)" stroke-linecap="butt" stroke-miterlimit="10.0"><path d="M 381.9583,320.1822 c -4.9819,-28.9557 -10.8179,-63.1497 -15.8355 -92.1801"/></g><g stroke-linejoin="miter" stroke-opacity="1.0" fill-opacity="0.0" stroke="rgb(0,0,0)" stroke-width="1.6450501697604152" fill="rgb(0,0,0)" stroke-linecap="butt" stroke-miterlimit="10.0"><path d="M 356.3369,328.8543 c -25.9773,-42.8305 -58.4666,-104.8734 -70.9784 -164.7385c -6.2523,-29.8810 -7.4551,-63.6585 -6.8253 -92.1979"/></g><g stroke-linejoin="miter" stroke-opacity="1.0" fill-opacity="0.0" stroke="rgb(0,0,0)" stroke-width="1.6450501697604152" fill="rgb(0,0,0)" stroke-linecap="butt" stroke-miterlimit="10.0"><path d="M 329.2920,392.7335 c -31.1371,4.3485 -68.5800,9.5724 -99.8843 13.9423"/></g><g stroke-linejoin="miter" stroke-opacity="1.0" fill-opacity="0.0" stroke="rgb(0,0,0)" stroke-width="1.6450501697604152" fill="rgb(0,0,0)" stroke-linecap="butt" stroke-miterlimit="10.0"><path d="M 18.4510,264.0108 c 6.0673,-34.1476 13.5224,-76.0849 19.5933 -110.2610"/></g><g stroke-linejoin="miter" stroke-opacity="1.0" fill-opacity="0.0" stroke="rgb(0,0,0)" stroke-width="1.6450501697604152" fill="rgb(0,0,0)" stroke-linecap="butt" stroke-miterlimit="10.0"><path d="M 66.1459,299.9520 c 64.3809,-30.3543 166.7669,-78.6293 230.7991 -108.8234"/></g><g stroke-linejoin="miter" stroke-opacity="1.0" fill-opacity="0.0" stroke="rgb(0,0,0)" stroke-width="1.6450501697604152" fill="rgb(0,0,0)" stroke-linecap="butt" stroke-miterlimit="10.0"><path d="M 63.9574,359.5360 c 14.4441,8.0672 29.9557,16.7322 44.3713 24.7816"/></g><g stroke-linejoin="miter" stroke-opacity="1.0" fill-opacity="0.0" stroke="rgb(0,0,0)" stroke-width="1.6450501697604152" fill="rgb(0,0,0)" stroke-linecap="butt" stroke-miterlimit="10.0"><path d="M 71.2809,334.5231 c 28.4149,3.1671 62.2244,7.1847 92.6143 11.4585c 55.8653,7.8572 119.1146,18.4474 164.9698 26.4328"/></g></svg>